<?xml version="1.0" standalone="no"?>
<!DOCTYPE svg PUBLIC "-//W3C//DTD SVG 20010904//EN"
 "http://www.w3.org/TR/2001/REC-SVG-20010904/DTD/svg10.dtd">
<svg version="1.0" xmlns="http://www.w3.org/2000/svg"
 width="348.000000pt" height="348.000000pt" viewBox="0 0 348.000000 348.000000"
 preserveAspectRatio="xMidYMid meet">

<g transform="translate(0.000000,348.000000) scale(0.100000,-0.100000)"
fill="#000000" stroke="none">
<path d="M1502 3254 c-7 -13 -31 -17 -139 -19 -71 -1 -134 -5 -140 -8 -14 -9
-37 -112 -29 -132 3 -9 0 -28 -8 -43 -19 -38 -44 -192 -56 -352 -8 -114 -22
-208 -47 -316 -3 -12 -1 -30 4 -40 10 -20 2 -142 -15 -228 -7 -38 -6 -60 6
-94 17 -52 12 -190 -9 -235 -10 -22 -10 -40 0 -90 8 -41 9 -71 3 -87 -5 -14
-13 -52 -16 -85 -6 -50 -3 -72 19 -135 22 -61 27 -97 29 -190 5 -178 14 -288
30 -366 8 -39 13 -88 9 -108 -3 -20 2 -78 11 -129 17 -91 21 -104 57 -202 11
-31 18 -78 19 -122 0 -39 4 -74 9 -77 5 -3 46 -9 92 -12 65 -5 92 -3 122 9
l37 16 -1 118 c0 88 6 157 26 268 20 109 28 191 30 300 1 83 8 186 15 230 8
52 10 121 6 196 -8 128 5 206 46 274 17 30 20 46 15 94 -5 44 -2 70 13 109 11
29 20 72 20 96 0 30 12 69 36 120 31 64 36 86 35 141 0 37 4 65 9 65 6 0 10
-15 10 -34 0 -49 45 -210 69 -250 16 -26 21 -50 21 -108 0 -83 17 -152 49
-196 11 -17 21 -43 21 -59 0 -17 7 -52 16 -79 15 -47 18 -92 28 -419 3 -71 12
-179 20 -240 14 -96 19 -258 16 -570 -1 -16 5 -42 11 -57 11 -28 12 -28 106
-28 125 0 153 13 153 74 0 24 7 60 15 80 15 36 40 151 54 251 4 28 13 61 20
74 7 13 15 58 17 100 2 42 8 114 13 161 6 47 13 130 16 185 4 55 11 119 16
142 5 23 9 131 10 240 2 195 2 199 -25 254 -14 31 -26 63 -26 71 0 8 12 43 26
78 19 47 24 73 19 99 -3 20 -7 129 -9 243 -2 167 -6 211 -18 230 -22 34 -38
130 -47 293 -6 93 -15 160 -29 200 -14 45 -18 77 -15 126 8 111 -8 122 -200
135 -102 6 -109 8 -117 30 l-10 24 -229 0 c-201 0 -231 -2 -239 -16z"/>
</g>
</svg>
