<?xml version="1.0" standalone="no"?>
<!DOCTYPE svg PUBLIC "-//W3C//DTD SVG 20010904//EN"
 "http://www.w3.org/TR/2001/REC-SVG-20010904/DTD/svg10.dtd">
<svg version="1.0" xmlns="http://www.w3.org/2000/svg"
 width="900.000000pt" height="900.000000pt" viewBox="0 0 900.000000 900.000000"
 preserveAspectRatio="xMidYMid meet">

<g transform="translate(0.000000,900.000000) scale(0.100000,-0.100000)"
fill="#000000" stroke="none">
<path d="M4420 8753 c-180 -6 -518 -50 -562 -74 -10 -5 -24 -23 -33 -38 -21
-42 -118 -161 -225 -276 -50 -55 -115 -137 -143 -183 l-52 -83 -215 -93 c-236
-103 -412 -180 -655 -291 -88 -40 -171 -76 -185 -80 -34 -11 -118 -66 -157
-103 -85 -82 -181 -251 -243 -427 -17 -49 -85 -304 -151 -565 -65 -261 -144
-567 -174 -680 -31 -113 -71 -275 -91 -360 -19 -85 -63 -253 -99 -375 -35
-121 -84 -290 -109 -375 -24 -85 -63 -210 -85 -277 -47 -139 -49 -166 -21
-328 11 -64 20 -139 20 -166 0 -27 -18 -136 -41 -242 -78 -366 -73 -315 -74
-752 -1 -532 13 -909 45 -1170 21 -179 21 -293 -4 -555 -9 -91 -18 -192 -21
-225 -3 -33 -11 -88 -17 -123 -6 -36 -7 -67 -2 -72 5 -4 56 -11 112 -14 57 -4
120 -9 140 -11 98 -13 339 -35 438 -41 l111 -7 5 79 c8 107 86 691 98 730 6
17 10 53 10 80 0 27 7 77 16 109 8 33 19 114 24 180 9 116 26 204 120 605 39
164 41 187 46 362 l4 187 50 106 c60 129 99 250 107 330 5 51 1 70 -22 124
-15 36 -29 88 -32 115 -4 47 -1 56 38 116 70 106 81 154 88 395 8 241 11 249
92 314 72 57 95 92 124 185 24 80 96 205 124 214 8 3 11 0 8 -5 -20 -33 -29
-682 -13 -953 12 -195 10 -490 -4 -640 -20 -213 -28 -254 -211 -1040 -89 -380
-124 -542 -169 -785 -22 -121 -47 -248 -56 -283 -14 -60 -13 -66 6 -109 85
-192 410 -477 750 -657 316 -166 709 -293 1080 -346 148 -22 290 -23 670 -5
635 31 1061 110 1300 242 191 106 357 297 487 563 31 63 70 134 86 158 l31 42
-18 133 c-36 269 -156 883 -311 1592 -98 449 -109 521 -109 735 -1 231 44 777
104 1264 11 88 20 162 21 165 0 3 6 -16 14 -44 7 -27 39 -108 70 -180 67 -152
85 -206 85 -257 0 -59 34 -151 94 -256 49 -85 57 -108 66 -178 16 -136 19
-217 8 -261 -14 -56 3 -172 42 -293 23 -70 30 -110 30 -173 0 -45 7 -113 15
-152 26 -117 73 -473 79 -600 7 -119 55 -598 78 -770 7 -49 11 -110 10 -135
-5 -111 -1 -337 13 -595 8 -154 14 -324 15 -378 0 -113 -8 -105 130 -128 143
-24 600 -12 628 16 8 7 19 264 26 610 4 184 9 263 20 298 22 70 64 330 81 507
24 256 35 467 42 820 6 353 2 421 -47 720 -25 156 -27 233 -6 300 19 63 22
210 6 305 -5 33 -10 91 -10 129 0 52 -5 77 -21 103 -16 25 -27 73 -40 176 -47
360 -164 784 -339 1237 -84 217 -87 228 -209 710 -55 217 -111 433 -126 480
-32 100 -111 264 -183 375 l-51 80 -138 64 c-76 36 -192 90 -258 121 -66 32
-275 128 -464 216 l-344 158 -25 55 c-35 78 -90 161 -227 345 -97 130 -126
162 -159 177 -54 23 -191 48 -351 64 -115 11 -181 13 -460 19 -38 0 -104 0
-145 -1z m188 -847 c12 -4 29 -20 37 -36 17 -33 20 -80 5 -80 -5 0 -10 11 -10
24 0 14 -5 28 -10 31 -6 4 -7 12 -3 18 5 9 3 9 -8 1 -10 -8 -18 -6 -31 7 -9 9
-14 19 -12 22 2 2 -3 4 -11 4 -8 0 -13 -2 -10 -5 8 -9 -26 -34 -49 -36 -12 0
-23 -6 -23 -13 0 -7 3 -10 7 -8 3 2 7 -7 8 -20 1 -13 -5 -26 -13 -29 -12 -4
-15 3 -15 30 0 78 59 117 138 90z m-38 -76 c0 -5 -2 -10 -4 -10 -3 0 -8 5 -11
10 -3 6 -1 10 4 10 6 0 11 -4 11 -10z m50 -13 c0 -8 -7 -14 -15 -14 -11 0 -12
4 -4 14 6 7 13 13 15 13 2 0 4 -6 4 -13z m-91 -59 c1 21 5 23 51 21 64 -3 76
-11 50 -34 -11 -10 -20 -15 -20 -12 0 4 -11 2 -25 -3 -15 -6 -25 -6 -25 0 0 5
8 11 18 13 9 2 7 3 -5 2 -13 -1 -23 2 -23 8 0 5 14 7 30 5 17 -3 30 -1 30 4 0
4 -16 8 -36 8 -34 0 -36 -1 -30 -27 5 -21 4 -24 -4 -13 -5 8 -10 11 -10 7 0
-4 -9 -3 -20 3 -11 6 -20 16 -20 23 0 7 4 6 10 -3 8 -12 10 -12 11 5 1 17 2
16 9 -5 8 -25 8 -25 9 -2z m-669 -587 c0 -17 -17 -13 -24 5 -10 27 -7 36 9 20
8 -8 15 -19 15 -25z m740 -1390 c0 -20 -14 -34 -43 -44 -15 -6 -16 -2 -11 21
9 38 13 42 35 42 12 0 19 -7 19 -19z m5 -131 c-3 -5 -10 -10 -16 -10 -5 0 -9
5 -9 10 0 6 7 10 16 10 8 0 12 -4 9 -10z m-24 -40 c15 9 19 7 19 -5 0 -9 -6
-22 -13 -30 -11 -11 -15 -10 -25 6 -7 10 -12 24 -11 31 0 10 2 10 6 1 3 -9 10
-10 24 -3z m29 -785 c0 -18 -17 -20 -22 -3 -2 6 -14 -5 -27 -25 -12 -20 -27
-37 -33 -37 -5 0 0 12 11 26 12 15 21 33 21 40 0 8 11 14 25 14 16 0 25 -6 25
-15z m-9 -175 c5 0 9 -7 9 -15 0 -23 -37 -18 -43 6 -4 15 -2 19 10 15 8 -3 19
-6 24 -6z m9 -777 c0 -12 -3 -13 -14 -4 -11 10 -17 8 -25 -6 -8 -14 -10 -15
-11 -2 0 21 19 39 36 32 8 -3 14 -12 14 -20z m20 -33 c0 -5 -2 -10 -4 -10 -3
0 -8 5 -11 10 -3 6 -1 10 4 10 6 0 11 -4 11 -10z m-31 -136 c6 4 11 1 11 -7 0
-8 -7 -18 -16 -21 -21 -8 -21 -8 -27 13 -6 23 3 36 14 20 4 -6 12 -8 18 -5z
m16 -815 c4 -11 4 -23 1 -27 -4 -3 -9 4 -13 16 -6 24 -19 29 -26 10 -3 -8 -6
-6 -6 5 -1 25 36 22 44 -4z m30 -49 c3 -5 2 -10 -4 -10 -5 0 -13 5 -16 10 -3
6 -2 10 4 10 5 0 13 -4 16 -10z m-39 -142 c-16 -9 -36 -3 -36 11 0 5 12 6 26
3 22 -4 24 -6 10 -14z m14 -778 c0 -18 6 -33 15 -36 8 -4 15 -11 15 -16 0 -16
-31 14 -41 39 -11 29 -29 30 -30 1 -1 -18 -2 -19 -6 -5 -7 27 4 47 27 47 16 0
20 -7 20 -30z m0 -181 c0 -14 -27 -10 -33 5 -4 10 0 12 14 9 10 -3 19 -9 19
-14z"/>
<path d="M4525 7890 c-4 -6 -10 -8 -15 -5 -5 3 -11 1 -14 -4 -12 -19 12 -20
29 -1 10 11 15 20 12 20 -3 0 -9 -5 -12 -10z"/>
<path d="M4616 7753 c-6 -14 -5 -15 5 -6 7 7 10 15 7 18 -3 3 -9 -2 -12 -12z"/>
<path d="M4560 5770 c0 -5 5 -10 10 -10 6 0 10 5 10 10 0 6 -4 10 -10 10 -5 0
-10 -4 -10 -10z"/>
</g>
</svg>
