<?xml version="1.0" standalone="no"?>
<!DOCTYPE svg PUBLIC "-//W3C//DTD SVG 20010904//EN"
 "http://www.w3.org/TR/2001/REC-SVG-20010904/DTD/svg10.dtd">
<svg version="1.0" xmlns="http://www.w3.org/2000/svg"
 width="840.000000pt" height="597.000000pt" viewBox="0 0 840.000000 597.000000"
 preserveAspectRatio="xMidYMid meet">

<g transform="translate(0.000000,597.000000) scale(0.100000,-0.100000)"
fill="#000000" stroke="none">
<path d="M4156 5485 c-34 -9 -58 -23 -76 -46 l-27 -32 -184 -3 c-160 -2 -198
-6 -289 -29 -58 -14 -181 -42 -275 -61 -100 -21 -206 -49 -260 -71 -98 -39
-421 -206 -552 -285 -85 -52 -200 -160 -269 -253 -20 -27 -60 -77 -89 -110
-84 -97 -213 -261 -250 -319 -133 -208 -296 -540 -358 -731 -38 -116 -102
-369 -132 -525 -26 -132 -67 -301 -107 -430 -12 -40 -23 -118 -28 -205 -5 -77
-12 -188 -16 -247 l-7 -106 31 -29 c17 -16 61 -39 97 -53 73 -27 66 -10 84
-190 64 -617 71 -680 91 -775 24 -114 64 -236 98 -298 41 -75 136 -158 206
-181 81 -25 188 -22 296 8 102 28 423 149 535 201 44 20 104 46 134 56 30 10
59 23 65 27 17 14 149 64 386 149 123 44 309 101 355 108 22 4 51 13 65 20 28
15 177 50 255 60 28 3 64 10 80 15 54 17 199 41 265 44 36 2 126 7 200 12 256
18 558 0 706 -42 28 -8 63 -14 78 -14 15 0 60 -9 99 -19 88 -23 200 -51 247
-61 19 -4 58 -17 85 -28 28 -11 91 -35 140 -52 164 -58 203 -76 575 -259 307
-151 402 -185 525 -185 86 -1 92 0 136 32 51 37 61 54 83 139 38 147 31 274
-34 678 -22 132 -42 272 -46 311 l-7 71 34 6 c19 3 56 9 82 13 34 4 51 12 59
27 12 23 5 270 -12 417 -6 47 -15 126 -21 175 -14 122 -56 308 -84 375 -13 30
-44 132 -70 225 -135 493 -286 896 -477 1270 -78 154 -133 239 -224 346 -99
117 -171 181 -294 261 -114 75 -486 263 -645 326 -225 90 -469 152 -598 152
-46 0 -119 3 -162 7 -74 6 -78 7 -87 35 -6 16 -22 35 -37 42 -84 44 -272 59
-375 31z"/>
</g>
</svg>
