<?xml version="1.0" standalone="no"?>
<!DOCTYPE svg PUBLIC "-//W3C//DTD SVG 20010904//EN"
 "http://www.w3.org/TR/2001/REC-SVG-20010904/DTD/svg10.dtd">
<svg version="1.0" xmlns="http://www.w3.org/2000/svg"
 width="920.000000pt" height="799.000000pt" viewBox="0 0 920.000000 799.000000"
 preserveAspectRatio="xMidYMid meet">

<g transform="translate(0.000000,799.000000) scale(0.100000,-0.100000)"
fill="#000000" stroke="none">
<path d="M4467 7973 c-4 -3 -114 -8 -245 -10 -296 -4 -448 -9 -677 -22 -99 -6
-234 -13 -300 -16 -66 -3 -150 -10 -186 -15 -36 -5 -97 -12 -135 -15 -38 -3
-91 -8 -119 -12 -53 -6 -57 -7 -175 -18 -113 -11 -265 -60 -309 -100 -36 -33
-36 -34 -37 -118 -1 -46 -5 -106 -8 -133 -4 -32 -1 -69 9 -107 25 -94 20 -136
-20 -193 -40 -56 -61 -117 -220 -639 -89 -295 -113 -387 -118 -455 -4 -47 -16
-146 -27 -220 -48 -316 -90 -612 -100 -700 -6 -52 -31 -248 -55 -435 -24 -187
-67 -520 -95 -740 -45 -358 -74 -576 -141 -1055 -93 -677 -120 -915 -159
-1390 -23 -283 -39 -748 -32 -910 3 -58 5 -159 6 -225 l1 -119 40 -12 c22 -6
80 -14 129 -18 50 -4 142 -16 205 -28 64 -11 197 -33 296 -49 99 -16 241 -39
315 -52 125 -20 166 -22 565 -22 237 0 529 2 650 4 121 2 340 2 488 1 254 -2
269 -1 311 20 25 11 49 26 54 33 21 26 52 179 52 255 0 59 8 106 30 183 27 92
32 132 46 344 42 687 38 987 -21 1520 -8 72 -15 219 -15 327 l0 196 38 34 c21
18 41 41 45 51 7 20 33 23 40 5 2 -7 0 -31 -5 -53 -25 -108 -5 -340 58 -655
18 -89 50 -455 59 -660 3 -80 10 -334 15 -565 9 -384 17 -500 40 -608 6 -27 4
-46 -6 -65 -16 -32 -19 -150 -4 -204 24 -87 163 -162 365 -198 269 -48 420
-63 765 -77 350 -15 498 -9 800 31 291 39 872 138 941 160 8 3 41 7 74 10 79
8 102 15 158 51 57 36 59 53 19 151 -28 66 -29 78 -36 289 -7 209 -28 558 -61
980 -14 188 -106 1120 -125 1265 -11 83 -19 155 -90 780 -28 239 -61 521 -74
625 -14 105 -37 287 -51 405 -15 118 -48 359 -75 535 -27 176 -58 392 -70 480
-44 338 -84 570 -141 826 -68 304 -113 452 -171 553 -38 66 -40 76 -39 141 2
49 7 75 19 88 19 21 20 90 5 239 -11 113 -24 137 -90 168 -52 24 -228 64 -333
74 -36 4 -130 16 -210 26 -146 19 -344 33 -655 46 -93 4 -197 9 -230 11 -137
7 -972 12 -978 6z"/>
</g>
</svg>
