<?xml version="1.0" standalone="no"?>
<!DOCTYPE svg PUBLIC "-//W3C//DTD SVG 20010904//EN"
 "http://www.w3.org/TR/2001/REC-SVG-20010904/DTD/svg10.dtd">
<svg version="1.0" xmlns="http://www.w3.org/2000/svg"
 width="360.000000pt" height="480.000000pt" viewBox="0 0 360.000000 480.000000"
 preserveAspectRatio="xMidYMid meet">

<g transform="translate(0.000000,480.000000) scale(0.100000,-0.100000)"
fill="#000000" stroke="none">
<path d="M1557 4633 c-9 -22 -20 -54 -23 -72 -4 -18 -12 -34 -18 -36 -6 -1
-74 -23 -151 -49 -77 -25 -216 -68 -308 -95 -93 -28 -172 -53 -178 -56 -30
-19 11 -199 91 -400 83 -210 101 -268 94 -317 -18 -129 90 -445 260 -758 l68
-125 -6 -90 c-16 -227 -16 -227 -50 -266 -51 -60 -206 -192 -291 -250 -70 -46
-130 -90 -290 -213 -245 -189 -409 -354 -518 -523 -45 -68 -80 -225 -80 -358
0 -190 38 -276 174 -394 157 -136 255 -159 457 -107 34 9 67 14 72 11 5 -3 24
-33 42 -67 43 -80 115 -150 196 -190 57 -28 78 -33 162 -36 68 -3 115 1 161
12 100 26 217 88 276 146 29 28 61 53 73 55 11 2 18 0 15 -6 -4 -5 -11 -7 -16
-4 -15 10 -10 -1 7 -15 8 -8 14 -9 12 -4 -1 5 3 18 9 29 6 11 9 28 8 38 -2 9
1 15 5 12 5 -3 11 -1 15 5 4 6 11 8 16 5 5 -4 9 0 9 7 1 7 7 2 15 -12 l14 -25
-4 32 c-2 18 1 36 7 39 7 5 8 2 3 -6 -5 -8 -3 -11 6 -8 8 3 13 11 11 17 -1 8
2 9 9 5 9 -5 10 -2 6 10 -4 10 -3 15 3 11 6 -3 10 0 10 7 0 9 3 10 8 2 4 -6
15 -10 24 -9 11 2 15 -3 13 -16 -2 -11 0 -17 6 -14 5 4 7 10 4 15 -3 5 3 13
12 19 10 6 12 11 5 11 -10 0 -10 4 0 19 7 11 16 17 20 15 5 -3 8 -2 7 3 -3 19
2 34 10 28 15 -9 25 15 12 28 -9 9 -11 7 -6 -8 5 -14 4 -16 -2 -7 -7 9 -12 6
-21 -13 -7 -14 -17 -23 -22 -20 -6 4 -7 -1 -4 -12 4 -14 3 -15 -4 -4 -7 9 -12
10 -16 2 -4 -6 -3 -11 2 -11 5 0 9 -7 9 -15 0 -20 -2 -19 -21 10 -12 18 -13
24 -4 23 7 -2 12 2 11 9 -2 7 6 10 16 8 24 -4 45 37 28 56 -10 11 -9 11 5 1
11 -9 18 -10 23 -2 3 5 3 10 -1 10 -3 0 -1 7 6 15 10 12 16 13 28 3 13 -11 15
-10 9 4 -4 11 -2 17 6 15 7 -1 11 5 9 13 -2 8 0 12 4 7 4 -4 9 -18 11 -30 2
-15 0 -18 -6 -9 -7 11 -9 11 -14 -2 -8 -20 8 -29 22 -13 10 12 8 52 -5 87 -3
8 -2 11 2 8 4 -4 16 -3 28 3 19 9 19 9 4 -4 -20 -16 -23 -33 -8 -42 6 -4 7 1
3 11 -5 13 -3 15 7 9 8 -5 11 -4 7 2 -4 6 2 18 13 28 11 10 20 24 20 32 0 8 5
11 10 8 6 -4 10 -3 9 2 -3 19 2 33 12 33 5 0 7 -6 3 -12 -5 -8 -1 -8 12 2 29
22 30 24 12 17 -10 -3 -20 -1 -24 5 -4 6 -3 8 3 5 6 -4 22 2 34 13 13 11 20
19 15 20 -6 0 3 14 20 32 16 17 24 28 18 25 -7 -4 -14 2 -17 14 -3 12 -3 18 0
15 3 -3 12 2 20 12 13 15 13 14 3 -8 -11 -24 -10 -24 4 -6 9 11 16 27 17 35 0
12 3 11 10 -4 8 -17 9 -16 6 8 -4 23 -2 25 11 15 14 -12 14 -10 2 12 -13 24
-12 24 5 10 17 -14 18 -14 5 10 -13 24 -12 24 5 10 17 -14 18 -14 6 9 -7 13
-8 21 -3 17 6 -3 13 -2 17 4 3 5 1 10 -5 10 -7 0 -5 7 4 16 9 8 13 21 9 27 -4
7 2 5 12 -3 11 -9 16 -10 11 -2 -4 6 -3 12 1 12 5 0 17 15 28 33 19 31 21 36
24 58 0 5 7 7 14 3 7 -5 6 0 -3 11 -8 10 -10 16 -3 12 6 -4 14 -3 18 3 3 5 -2
10 -12 10 -14 0 -15 2 -5 9 8 4 13 11 12 15 0 3 4 14 9 24 6 9 11 12 11 7 0
-6 -5 -16 -11 -22 -8 -8 -7 -13 3 -18 7 -5 10 -5 6 0 -4 4 -3 14 3 21 6 8 9
21 5 29 -3 9 -2 13 3 10 6 -3 14 3 20 12 6 10 11 13 11 7 0 -6 -3 -14 -7 -18
-11 -10 -12 -37 -2 -30 5 3 7 9 4 14 -3 5 -1 11 5 15 5 3 10 14 10 24 0 9 6
23 13 29 6 7 12 18 12 25 0 7 10 12 22 11 17 0 20 2 12 12 -8 10 -6 12 11 9
19 -4 20 -2 8 12 -12 15 -11 15 8 5 16 -9 21 -8 21 3 0 8 -5 11 -10 8 -6 -3
-7 -1 -3 5 10 17 24 15 29 -6 4 -16 5 -16 6 1 0 10 6 15 11 12 6 -4 7 -11 4
-17 -4 -7 -2 -8 4 -4 6 4 9 13 6 21 -9 22 5 38 22 24 11 -9 15 -8 20 4 3 9 2
22 -2 29 -5 8 -1 8 11 -2 15 -12 17 -12 10 -1 -6 11 -4 13 7 8 13 -4 15 1 12
31 -3 29 -2 32 5 17 10 -21 9 -22 15 28 1 6 11 11 23 9 14 -2 23 4 28 18 4 11
11 17 17 14 8 -5 9 -1 5 10 -4 10 -3 15 3 11 6 -3 13 1 16 9 3 9 10 13 15 10
5 -3 6 2 3 11 -4 10 -2 15 7 13 9 -2 14 5 13 20 -1 18 1 20 13 10 8 -6 13 -7
12 -2 -4 21 2 28 11 14 8 -13 10 -13 10 2 0 9 5 20 12 24 7 5 8 3 3 -6 -5 -9
-4 -11 4 -6 9 6 9 11 0 22 -10 12 -9 13 5 8 12 -4 20 3 30 27 8 19 10 35 5 37
-5 2 -2 11 7 19 13 13 13 17 2 24 -10 7 -10 9 -1 9 9 0 12 13 9 40 -2 22 0 40
5 40 6 0 4 10 -2 23 -7 12 -12 23 -11 25 6 8 0 32 -7 28 -5 -3 -12 20 -15 52
-23 195 -97 324 -297 522 -53 52 -109 114 -126 137 -29 40 -29 43 -27 150 8
377 2 554 -23 633 -26 80 -32 132 -38 335 -10 291 -17 365 -35 365 -4 0 -10
44 -13 98 -4 78 -23 167 -44 201 -1 2 -24 -2 -50 -7 -48 -11 -150 -17 -453
-27 -158 -6 -212 -1 -350 31 -22 5 -28 0 -43 -33z m1239 -2962 c-4 -5 0 -11 6
-14 7 -3 3 -4 -9 -4 -17 1 -19 4 -11 14 12 15 22 18 14 4z m-28 -66 c-3 -3 -9
2 -12 12 -6 14 -5 15 5 6 7 -7 10 -15 7 -18z m-308 -346 c-12 -16 -24 -29 -26
-29 -3 0 4 13 15 29 11 15 17 32 13 36 -4 5 -1 5 6 1 9 -6 7 -14 -8 -37z
m-178 -281 c-11 -13 -21 -27 -21 -33 0 -5 -5 -11 -13 -13 -9 -2 -9 -1 -2 5 6
4 10 16 8 26 -1 9 2 15 7 11 5 -3 12 2 15 10 3 9 11 16 17 16 6 0 1 -10 -11
-22z m-98 -116 c-17 -35 -20 -37 -30 -20 -4 7 -3 8 4 4 11 -6 17 13 13 37 -1
5 3 6 9 2 5 -3 10 -1 10 6 0 7 2 10 5 7 3 -2 -2 -19 -11 -36z m-344 -316 c0
-2 -8 -10 -17 -17 -16 -13 -17 -12 -4 4 13 16 21 21 21 13z"/>
<path d="M2847 1709 c7 -7 15 -10 18 -7 3 3 -2 9 -12 12 -14 6 -15 5 -6 -5z"/>
<path d="M2740 1591 c0 -6 4 -13 10 -16 6 -3 7 1 4 9 -7 18 -14 21 -14 7z"/>
<path d="M2613 1503 c4 -3 0 -15 -10 -25 -9 -10 -13 -21 -10 -25 4 -3 7 -1 7
6 0 7 5 9 12 5 6 -4 8 -3 4 4 -3 6 -2 13 4 17 14 8 13 25 -2 25 -6 0 -8 -3 -5
-7z"/>
<path d="M2055 730 c-3 -5 0 -10 7 -10 9 0 9 -3 -2 -10 -12 -7 -10 -9 7 -7 17
1 20 5 12 19 -11 21 -15 22 -24 8z"/>
<path d="M1908 549 c-15 -16 -22 -29 -17 -29 6 0 7 -6 3 -12 -6 -9 -3 -9 9 0
9 8 15 19 14 25 -1 7 3 11 8 10 6 -1 12 7 12 18 1 10 1 18 0 18 -1 -1 -14 -14
-29 -30z"/>
<path d="M1950 561 c0 -11 4 -22 9 -25 4 -3 6 6 3 19 -5 30 -12 33 -12 6z"/>
<path d="M1824 500 c-5 -8 -9 -23 -10 -32 -1 -10 -2 -19 -4 -20 -7 -10 -6 -37
1 -32 5 3 6 10 3 16 -5 7 -1 9 9 5 9 -3 19 -1 23 5 4 6 3 8 -3 5 -15 -9 -24
18 -11 31 6 6 8 16 6 23 -3 10 -6 10 -14 -1z"/>
<path d="M1850 496 c0 -8 4 -17 9 -20 5 -4 7 3 4 14 -6 23 -13 26 -13 6z"/>
</g>
</svg>
